<mxfile host="app.diagrams.net" agent="Mozilla/5.0 (Windows NT 10.0; Win64; x64) AppleWebKit/537.36 (KHTML, like Gecko) Chrome/136.0.0.0 Safari/537.36" version="27.0.3">
  <diagram name="第 1 页" id="BpTwVkGV5AgL5zXR3Tn4">
    <mxGraphModel dx="1959" dy="659" grid="1" gridSize="10" guides="1" tooltips="1" connect="1" arrows="1" fold="1" page="1" pageScale="1" pageWidth="827" pageHeight="1169" math="0" shadow="0">
      <root>
        <mxCell id="0" />
        <mxCell id="1" parent="0" />
        <mxCell id="nzIbEqaGMQzPCEDjsWur-1" value="&lt;h1 style=&quot;padding-bottom: 200px;&quot;&gt;&lt;b&gt;Timemixer&lt;/b&gt;&lt;/h1&gt;" style="rounded=0;whiteSpace=wrap;html=1;align=center;" vertex="1" parent="1">
          <mxGeometry x="360" y="220" width="240" height="370" as="geometry" />
        </mxCell>
        <mxCell id="nzIbEqaGMQzPCEDjsWur-8" value="" style="edgeStyle=orthogonalEdgeStyle;rounded=0;orthogonalLoop=1;jettySize=auto;html=1;" edge="1" parent="1" source="nzIbEqaGMQzPCEDjsWur-2" target="nzIbEqaGMQzPCEDjsWur-3">
          <mxGeometry relative="1" as="geometry" />
        </mxCell>
        <mxCell id="nzIbEqaGMQzPCEDjsWur-10" style="edgeStyle=orthogonalEdgeStyle;rounded=0;orthogonalLoop=1;jettySize=auto;html=1;" edge="1" parent="1" source="nzIbEqaGMQzPCEDjsWur-2">
          <mxGeometry relative="1" as="geometry">
            <mxPoint x="210" y="740" as="targetPoint" />
          </mxGeometry>
        </mxCell>
        <mxCell id="nzIbEqaGMQzPCEDjsWur-2" value="原始日径流数据" style="rounded=0;whiteSpace=wrap;html=1;" vertex="1" parent="1">
          <mxGeometry x="-40" y="620" width="120" height="60" as="geometry" />
        </mxCell>
        <mxCell id="nzIbEqaGMQzPCEDjsWur-3" value="添加某种处理机制去选出更相关的因素" style="rounded=0;whiteSpace=wrap;html=1;" vertex="1" parent="1">
          <mxGeometry x="150" y="330" width="120" height="60" as="geometry" />
        </mxCell>
        <mxCell id="nzIbEqaGMQzPCEDjsWur-15" value="" style="edgeStyle=orthogonalEdgeStyle;rounded=0;orthogonalLoop=1;jettySize=auto;html=1;" edge="1" parent="1" source="nzIbEqaGMQzPCEDjsWur-4" target="nzIbEqaGMQzPCEDjsWur-5">
          <mxGeometry relative="1" as="geometry" />
        </mxCell>
        <mxCell id="nzIbEqaGMQzPCEDjsWur-4" value="Multiscale Time Series" style="rounded=0;whiteSpace=wrap;html=1;" vertex="1" parent="1">
          <mxGeometry x="370" y="330" width="120" height="60" as="geometry" />
        </mxCell>
        <mxCell id="nzIbEqaGMQzPCEDjsWur-16" value="" style="edgeStyle=orthogonalEdgeStyle;rounded=0;orthogonalLoop=1;jettySize=auto;html=1;" edge="1" parent="1" source="nzIbEqaGMQzPCEDjsWur-5" target="nzIbEqaGMQzPCEDjsWur-6">
          <mxGeometry relative="1" as="geometry" />
        </mxCell>
        <mxCell id="nzIbEqaGMQzPCEDjsWur-5" value="Past Decomposable Mixing" style="rounded=0;whiteSpace=wrap;html=1;" vertex="1" parent="1">
          <mxGeometry x="370" y="420" width="120" height="60" as="geometry" />
        </mxCell>
        <mxCell id="nzIbEqaGMQzPCEDjsWur-18" value="" style="edgeStyle=orthogonalEdgeStyle;rounded=0;orthogonalLoop=1;jettySize=auto;html=1;" edge="1" parent="1" source="nzIbEqaGMQzPCEDjsWur-6" target="nzIbEqaGMQzPCEDjsWur-17">
          <mxGeometry relative="1" as="geometry" />
        </mxCell>
        <mxCell id="nzIbEqaGMQzPCEDjsWur-6" value="Future Multipredictor Mixing" style="rounded=0;whiteSpace=wrap;html=1;" vertex="1" parent="1">
          <mxGeometry x="370" y="510" width="120" height="60" as="geometry" />
        </mxCell>
        <mxCell id="nzIbEqaGMQzPCEDjsWur-7" value="" style="endArrow=classic;html=1;rounded=0;entryX=0.001;entryY=0.378;entryDx=0;entryDy=0;entryPerimeter=0;" edge="1" parent="1" target="nzIbEqaGMQzPCEDjsWur-1">
          <mxGeometry width="50" height="50" relative="1" as="geometry">
            <mxPoint x="270" y="360" as="sourcePoint" />
            <mxPoint x="320" y="310" as="targetPoint" />
          </mxGeometry>
        </mxCell>
        <mxCell id="nzIbEqaGMQzPCEDjsWur-14" value="" style="edgeStyle=orthogonalEdgeStyle;rounded=0;orthogonalLoop=1;jettySize=auto;html=1;" edge="1" parent="1" source="nzIbEqaGMQzPCEDjsWur-11" target="nzIbEqaGMQzPCEDjsWur-13">
          <mxGeometry relative="1" as="geometry" />
        </mxCell>
        <mxCell id="nzIbEqaGMQzPCEDjsWur-11" value="新安江模型" style="rounded=0;whiteSpace=wrap;html=1;" vertex="1" parent="1">
          <mxGeometry x="150" y="740" width="120" height="60" as="geometry" />
        </mxCell>
        <mxCell id="nzIbEqaGMQzPCEDjsWur-21" style="edgeStyle=orthogonalEdgeStyle;rounded=0;orthogonalLoop=1;jettySize=auto;html=1;entryX=0.5;entryY=1;entryDx=0;entryDy=0;" edge="1" parent="1" source="nzIbEqaGMQzPCEDjsWur-13" target="nzIbEqaGMQzPCEDjsWur-19">
          <mxGeometry relative="1" as="geometry" />
        </mxCell>
        <mxCell id="nzIbEqaGMQzPCEDjsWur-13" value="新安江的预测结果" style="rounded=0;whiteSpace=wrap;html=1;" vertex="1" parent="1">
          <mxGeometry x="650" y="740" width="120" height="60" as="geometry" />
        </mxCell>
        <mxCell id="nzIbEqaGMQzPCEDjsWur-20" value="" style="edgeStyle=orthogonalEdgeStyle;rounded=0;orthogonalLoop=1;jettySize=auto;html=1;" edge="1" parent="1" source="nzIbEqaGMQzPCEDjsWur-17" target="nzIbEqaGMQzPCEDjsWur-19">
          <mxGeometry relative="1" as="geometry" />
        </mxCell>
        <mxCell id="nzIbEqaGMQzPCEDjsWur-17" value="timemixer的预测结果" style="rounded=0;whiteSpace=wrap;html=1;" vertex="1" parent="1">
          <mxGeometry x="650" y="510" width="120" height="60" as="geometry" />
        </mxCell>
        <mxCell id="nzIbEqaGMQzPCEDjsWur-25" value="" style="edgeStyle=orthogonalEdgeStyle;rounded=0;orthogonalLoop=1;jettySize=auto;html=1;" edge="1" parent="1" source="nzIbEqaGMQzPCEDjsWur-19" target="nzIbEqaGMQzPCEDjsWur-24">
          <mxGeometry relative="1" as="geometry" />
        </mxCell>
        <mxCell id="nzIbEqaGMQzPCEDjsWur-19" value="经过某个模型&lt;div&gt;像是xgboost&lt;/div&gt;" style="rounded=0;whiteSpace=wrap;html=1;" vertex="1" parent="1">
          <mxGeometry x="827" y="620" width="120" height="60" as="geometry" />
        </mxCell>
        <mxCell id="nzIbEqaGMQzPCEDjsWur-24" value="最终结果" style="whiteSpace=wrap;html=1;rounded=0;" vertex="1" parent="1">
          <mxGeometry x="1027" y="620" width="120" height="60" as="geometry" />
        </mxCell>
      </root>
    </mxGraphModel>
  </diagram>
</mxfile>
